<svg width="28" height="27" viewBox="0 0 28 27" fill="none" xmlns="http://www.w3.org/2000/svg">
<path d="M17.3915 18.0952C17.9607 18.0952 18.4227 18.5458 18.4227 19.101V20.3302C18.4227 23.5255 15.7578 26.125 12.4809 26.125H5.95386C2.6716 26.125 0 23.5189 0 20.3159C0 19.7607 0.462006 19.3113 1.03114 19.3113C1.60028 19.3113 2.06229 19.7607 2.06229 20.3159C2.06229 22.4112 3.80854 24.1133 5.95386 24.1133H12.4809C14.6208 24.1133 16.3604 22.4164 16.3604 20.3302V19.101C16.3604 18.5458 16.8224 18.0952 17.3915 18.0952ZM26.4685 12.0556C26.8864 12.0556 27.2627 12.3012 27.422 12.6787C27.5814 13.0549 27.4917 13.4886 27.197 13.776L23.284 17.576C23.0818 17.7707 22.8194 17.87 22.5556 17.87C22.2917 17.87 22.0266 17.7707 21.8257 17.5734C21.424 17.1789 21.424 16.5427 21.8284 16.1509L23.9724 14.0686H10.38C9.81087 14.0686 9.34753 13.6179 9.34753 13.0628C9.34753 12.5076 9.81087 12.0556 10.38 12.0556H26.4685ZM12.4677 0C15.7513 0 18.4229 2.60607 18.4229 5.80913V7.02529C18.4229 7.57916 17.9609 8.02984 17.3918 8.02984C16.8227 8.02984 16.3607 7.57916 16.3607 7.02529V5.80913C16.3607 3.71382 14.6144 2.01171 12.4677 2.01171H5.94207C3.80211 2.01171 2.06256 3.7099 2.06256 5.79476V15.7422C2.06256 16.2974 1.60055 16.7481 1.03141 16.7481C0.462274 16.7481 0.00026783 16.2974 0.00026783 15.7422V5.79476C0.00026783 2.59954 2.66517 0 5.94207 0H12.4677ZM21.823 8.55615C22.2248 8.15903 22.8756 8.15642 23.2814 8.54831L24.267 9.4993C24.6727 9.89119 24.6754 10.5274 24.275 10.9219C24.0728 11.1204 23.8077 11.221 23.5425 11.221C23.28 11.221 23.0176 11.123 22.8167 10.9297L21.8297 9.9774C21.4253 9.58682 21.4226 8.94935 21.823 8.55615Z" fill="black"/>
</svg>
