<svg width="27" height="31" viewBox="0 0 27 31" fill="none" xmlns="http://www.w3.org/2000/svg">
<path d="M8.52569 23.658H19.9161C20.5398 23.658 21.0455 23.1453 21.0455 22.5129C21.0455 21.8804 20.5398 21.3677 19.9161 21.3677H8.51192C7.88817 21.3677 7.38252 21.8804 7.38252 22.5129C7.38252 23.1453 7.88817 23.658 8.51192 23.658H8.52569Z" fill="#200E32"/>
<path d="M8.52538 16.9683H19.9157C20.3516 17.0171 20.7765 16.8087 21.0095 16.4321C21.2424 16.0554 21.2424 15.5769 21.0095 15.2002C20.7765 14.8236 20.3516 14.6153 19.9157 14.664H8.51161C7.93225 14.7288 7.49373 15.2251 7.49373 15.8162C7.49373 16.4072 7.93225 16.9035 8.51161 16.9683H8.52538Z" fill="#200E32"/>
<path d="M8.52551 10.2787H12.864C13.4434 10.2139 13.8819 9.71755 13.8819 9.12653C13.8819 8.53552 13.4434 8.03914 12.864 7.97437H8.52551C7.94615 8.03914 7.50763 8.53552 7.50763 9.12653C7.50763 9.71755 7.94615 10.2139 8.52551 10.2787Z" fill="#200E32"/>
<path d="M19.1997 0H7.67468C2.87475 0 0 2.91882 0 7.82776V22.2229C0 27.1185 2.87475 30.0506 7.67468 30.0506C8.22185 29.9891 8.63601 29.5175 8.63601 28.9561C8.63601 28.3946 8.22185 27.923 7.67468 27.8615C4.00644 27.8615 2.14631 25.9643 2.14631 22.2229V7.82776C2.14631 4.08636 4.00644 2.18912 7.67468 2.18912H19.1997C22.868 2.18912 24.7151 4.08636 24.7151 7.82776V22.2229C24.7151 25.9643 22.868 27.8615 19.1997 27.8615H14.9461C14.399 27.923 13.9848 28.3946 13.9848 28.9561C13.9848 29.5175 14.399 29.9891 14.9461 30.0506H19.2127C24.0257 30.0506 26.8874 27.1185 26.8874 22.2229V7.82776C26.8744 2.93209 23.9996 0 19.1997 0Z" fill="#071529"/>
</svg>
